<svg xmlns="http://www.w3.org/2000/svg" viewBox="0 0 507.866 107.658"><defs><style>.cls-1{fill:#fff;}.cls-2{fill:#1c1c1a;}.cls-3{fill:#7f7877;}.cls-4{fill:#c03369;}.cls-5{font-size:72.405px;fill:#211915;font-family:BebasNeue-Regular, Bebas Neue;}</style></defs><title>LogoalternovaShop_Instagram</title><g id="Capa_2" data-name="Capa 2"><g id="Capa_1-2" data-name="Capa 1"><path class="cls-1" d="M356.333.461Q423.506.461,490.678.4c2.035,0,2.453.4,2.437,2.435q-.168,21.845-.008,43.691c.011,1.775-.359,2.134-2.132,2.13q-47.408-.1-94.814-.049-196.612,0-393.225.056c-2.229,0-2.753-.5-2.735-2.731q.176-21.547,0-43.1C.185.8.6.4,2.639.405q117.849.1,235.7.056H349.794a.58.58,0,0,1-.075.818c-3.449,1.413-7.173,2.066-10.3,4.392C332.554,10.783,329.407,17.715,330.07,26c.778,9.721,5.891,16.732,15.336,19.892,10.757,3.6,21.834-.185,27.658-9.236,7.17-11.144,3.643-29.546-13.126-34.378C358.674,1.914,356.856,2.388,356.333.461Z" transform="translate(-0.201 -0.404)"/><path class="cls-2" d="M356.333.461c1.134,1.108,2.706.756,4.05,1.149a23.616,23.616,0,0,1,16.533,27.778A23.964,23.964,0,0,1,349.992,47.8c-11.931-1.94-19.483-9.589-20.695-21.728A22.887,22.887,0,0,1,343.474,2.617,17.437,17.437,0,0,1,349.741,1c1.954-.682,4.054.248,6-.544Z" transform="translate(-0.201 -0.404)"/><path class="cls-3" d="M355.739.461c-1.912,1.146-4,.392-6,.544a.479.479,0,0,0,.053-.544Z" transform="translate(-0.201 -0.404)"/><path class="cls-2" d="M281.6,23.3c0,6.853-.1,13.74.058,20.62.055,2.369-.392,3.424-3,3.123a38.283,38.283,0,0,0-6.531-.021c-1.616.09-1.969-.547-1.964-2.055q.078-20.657,0-41.313c-.006-1.493.3-2.284,1.936-2.009a1.816,1.816,0,0,0,.593,0c4.534-.784,7.644.9,10.473,4.649,4.583,6.072,9.818,11.651,14.784,17.433.671.781,1.379,1.53,2.512,2.783,0-7.848.115-15.04-.065-22.224-.058-2.326.66-2.9,2.8-2.666,2.915.317,6.833-1.229,8.5.64,1.448,1.623.476,5.453.482,8.308.022,11.195-.041,22.39.054,33.584.017,2.084-.372,2.738-2.686,2.955-4.7.44-7.844-1.15-10.77-4.888-4.936-6.306-10.471-12.143-15.764-18.168C282.715,23.719,282.558,23.142,281.6,23.3Z" transform="translate(-0.201 -0.404)"/><path class="cls-2" d="M162.707,24.24c0-6.734.078-13.469-.048-20.2-.038-2,.579-2.453,2.494-2.434,9.9.095,19.805.08,29.707.009,1.684-.012,2.38.214,2.388,2.2.03,7.9.117,7.9-7.7,7.9-4.555,0-9.112.075-13.664-.039-1.693-.042-2.121.476-2.133,2.14-.038,5.724-.109,5.724,5.64,5.724,4.159,0,8.319.057,12.476-.03,1.528-.032,2,.429,2.067,2,.333,8.042.382,8.04-7.586,8.04-3.465,0-6.934.074-10.4-.034-1.594-.049-2.2.3-2.207,2.067-.024,5.311-.114,5.311,5.181,5.311,5.249,0,10.5.064,15.744-.035,1.829-.035,2.575.314,2.582,2.408.027,7.735.117,7.735-7.542,7.735-8.119,0-16.24-.061-24.359.043-2.01.026-2.735-.445-2.69-2.6C162.795,37.709,162.707,30.973,162.707,24.24Z" transform="translate(-0.201 -0.404)"/><path class="cls-2" d="M255.8,46.992c-4.648,0-8.6-.056-12.548.031a2.951,2.951,0,0,1-2.593-1.609q-3.518-4.781-7.053-9.546c-1.191-1.6-5.729-2.736-7.459-1.916-.853.4-.624,1.146-.629,1.793-.022,3.07-.118,6.146.031,9.209.088,1.832-.7,2.133-2.259,2.065a71.2,71.2,0,0,0-7.128.007c-1.788.1-2.409-.419-2.375-2.3q.171-9.505,0-19.016c-.03-1.779.613-2.121,2.222-2.1,5.546.087,11.094.017,16.64.043a11.2,11.2,0,0,0,5.168-1.041,5.341,5.341,0,0,0,3.351-5.128c-.028-2.527-1.553-3.99-3.648-4.93a10.9,10.9,0,0,0-4.628-.821c-5.646.055-11.293-.039-16.937.059-1.684.029-2.3-.455-2.15-2.155.224-2.545-1.039-5.847.466-7.457,1.528-1.636,4.868-.553,7.4-.49,6.022.148,12.091-.73,18.061.575,6.373,1.394,11.039,4.888,12.5,11.513,1.525,6.915-.484,12.73-6.418,16.856-1.28.89-1.462,1.4-.481,2.643C248.737,37.609,252.028,42.03,255.8,46.992Z" transform="translate(-0.201 -0.404)"/><path class="cls-2" d="M387.367,1.8a8.433,8.433,0,0,1,1.03-.137c3.756.029,8.169-1.133,11.081.454,2.773,1.513,3.166,6.261,4.6,9.588,2.805,6.513,5.532,13.06,8.3,19.613,1.152-.44,1.161-1.567,1.511-2.39,3.508-8.242,7.016-16.484,10.355-24.794.793-1.975,1.818-2.653,3.9-2.531,3.147.184,6.312.048,9.916.048-2.343,5.4-4.574,10.519-6.778,15.644-4.008,9.318-8.041,18.626-11.959,27.982a2.908,2.908,0,0,1-3.3,2.136c-2.961-.169-6.446.854-8.761-.392s-2.682-5.051-3.858-7.743c-5.125-11.734-10.138-23.516-15.186-35.283C387.921,3.289,387.664,2.565,387.367,1.8Z" transform="translate(-0.201 -0.404)"/><path class="cls-2" d="M127.354,1.65c5.744,0,11.49.093,17.23-.047,2.2-.054,3.057.358,3.006,2.84-.153,7.475-.031,7.478-7.585,7.478-7.018,0-7.018,0-7.018,7.094,0,8.517-.056,17.034.043,25.549.023,1.911-.453,2.665-2.438,2.455-2.917-.31-6.828,1.243-8.506-.629-1.45-1.617-.489-5.445-.5-8.3-.029-7.922-.082-15.846.04-23.766.031-2-.578-2.534-2.5-2.448-3.262.147-6.539-.058-9.8.08-1.734.074-2.235-.525-2.09-2.166.233-2.634-1.087-6.134.527-7.671,1.373-1.308,4.856-.442,7.407-.464C119.234,1.624,123.294,1.65,127.354,1.65Z" transform="translate(-0.201 -0.404)"/><path class="cls-2" d="M466.032,11.8c-4.457,11.313-8.708,22-12.858,32.732-.689,1.782-1.472,2.734-3.588,2.519a44.931,44.931,0,0,0-7.114-.024c-2.091.122-2.521-.321-1.63-2.39,4.857-11.287,9.544-22.646,14.37-33.946,1.346-3.151,1.74-7.529,4.4-9.07,2.531-1.464,6.555-.2,9.9-.456,2.533-.2,3.829.571,4.812,3.02,2.271,5.657,4.873,11.185,7.455,16.711.8,1.714.858,2.477-1.386,2.354a65.685,65.685,0,0,0-7.711.01c-1.727.109-2.407-.622-2.942-2.131C468.694,18.175,467.439,15.3,466.032,11.8Z" transform="translate(-0.201 -0.404)"/><path class="cls-2" d="M11.017,23.215c3.216-7.169,6.3-13.971,9.305-20.8.524-1.19,1.39-1.2,2.408-1.2,3.364.016,6.731.079,10.092-.027,1.456-.046,2.03.575,2.555,1.829Q44.164,24,53.078,44.927c.711,1.668.47,2.2-1.422,2.1-3.253-.171-7.115.92-9.6-.49s-2.727-5.615-3.926-8.6c-3.409-8.493-6.755-17.01-10.342-26.063-1.358,3.363-2.636,6.283-3.706,9.278-.54,1.51-1.237,2.192-2.949,2.112C17.892,23.108,14.645,23.215,11.017,23.215Z" transform="translate(-0.201 -0.404)"/><path class="cls-2" d="M69.052,24.226c0-6.833.057-13.666-.041-20.5-.024-1.714.5-2.2,2.157-2.113a53.763,53.763,0,0,0,7.124-.01c1.892-.146,2.279.5,2.263,2.3-.091,10.1.017,20.2-.1,30.3-.022,2.044.427,2.681,2.563,2.62,5.738-.165,11.486.017,17.227-.1,1.949-.038,2.751.327,2.746,2.539-.02,7.724.073,7.724-7.627,7.724-8.021,0-16.043-.061-24.062.045-1.851.025-2.328-.49-2.3-2.314C69.118,37.893,69.052,31.059,69.052,24.226Z" transform="translate(-0.201 -0.404)"/><path class="cls-4" d="M475.424,34.939c3.692,0,7.154.044,10.613-.025a2.013,2.013,0,0,1,2.224,1.443c1.172,2.936,2.385,5.859,3.7,8.731.694,1.511.267,1.974-1.253,1.833a2.264,2.264,0,0,0-.3,0C479.61,47.3,479.257,47.028,475.424,34.939Z" transform="translate(-0.201 -0.404)"/><path class="cls-4" d="M18.548,35.12c-1.562,3.657-3.039,6.977-4.388,10.348a2.009,2.009,0,0,1-2.2,1.469c-2.96-.054-5.922-.066-8.881,0-1.618.037-1.952-.536-1.191-1.9a4.691,4.691,0,0,0,.214-.551C6.218,34.146,6.219,34.146,18.548,35.12Z" transform="translate(-0.201 -0.404)"/><path class="cls-1" d="M340.839,24.307a12.75,12.75,0,0,1,12.276-12.98c6.9-.116,12.578,5.751,12.564,12.987s-5.658,13.088-12.564,13C346.355,37.233,340.834,31.381,340.839,24.307Z" transform="translate(-0.201 -0.404)"/><text class="cls-5" transform="matrix(1.33, 0, -0.431, 0.902, 329.422, 94.593)">SHOP</text></g></g></svg>